<svg width="114" height="125" viewBox="0 0 114 125" fill="none" xmlns="http://www.w3.org/2000/svg">
<mask id="path-1-inside-1_7_115" fill="white">
<path d="M56.9912 125C50.1002 124.992 46.5093 120.249 45.2606 115.506C44.3175 110.793 46.3395 107.167 48.0326 104.131C48.8842 102.603 49.6525 101.225 49.9187 99.9334H49.8834C49.9395 99.6804 49.9769 99.4307 49.9923 99.1839C49.9923 95.7344 47.1945 92.938 43.7433 92.938C43.242 92.938 42.8863 92.938 42.5319 92.9595C41.6665 93.0118 40.8088 93.192 37.8565 93.8124L37.856 93.8124C33.6943 94.6869 25.3709 96.4357 6.99892 99.9334C3.49951 81.5709 1.74978 73.2519 0.874906 69.0923L0.874845 69.092L0.874754 69.0916C0.254132 66.1408 0.073831 65.2836 0.0214506 64.4186C0 64.0644 0 63.7089 0 63.2079C0 59.7584 2.79779 56.962 6.24904 56.962C7.73358 57.0548 9.32144 57.9392 11.1149 58.9382C14.153 60.6305 17.7812 62.6514 22.4965 61.7089C27.2458 60.4597 31.9951 56.8656 31.9951 49.9667C31.9951 44.0119 27.8263 39.4765 22.2466 38.2245C17.4494 37.3527 14.6812 39.1004 12.1228 40.7157C10.2821 41.8778 8.55006 42.9714 6.24904 42.9714C2.79779 42.9714 0 40.175 0 36.7255C0 36.2245 0 35.869 0.0214506 35.5148C0.073831 34.6498 0.254132 33.7926 0.874754 30.8418L0.874845 30.8414L0.874876 30.8412L0.874937 30.841L0.875272 30.8394C1.75025 26.6793 3.49999 18.36 6.99892 0H107.001C110.5 18.36 112.25 26.6793 113.125 30.8394L113.125 30.841L113.125 30.8412L113.125 30.8414L113.125 30.8418C113.746 33.7926 113.926 34.6498 113.979 35.5148C114 35.869 114 36.2245 114 36.7255C114 40.175 111.202 42.9714 107.751 42.9714C105.45 42.9714 103.718 41.8778 101.877 40.7157C99.3188 39.1004 96.5506 37.3527 91.7534 38.2245C86.1737 39.4765 82.0049 44.0119 82.0049 49.9667C82.0049 56.8656 86.7542 60.4597 91.5035 61.7089C96.2188 62.6514 99.847 60.6305 102.885 58.9382C104.679 57.9392 106.266 57.0548 107.751 56.962C111.202 56.962 114 59.7584 114 63.2079C114 63.7089 114 64.0644 113.979 64.4186C113.926 65.2836 113.746 66.1408 113.125 69.0916L113.125 69.092L113.125 69.0923C112.25 73.2519 110.5 81.5709 107.001 99.9334C88.6291 96.4357 80.3057 94.6869 76.144 93.8124L76.1435 93.8124C73.1912 93.192 72.3335 93.0118 71.4681 92.9595C71.1137 92.938 70.758 92.938 70.2567 92.938C66.8055 92.938 64.0077 95.7344 64.0077 99.1839C64.0231 99.4307 64.0605 99.6804 64.1166 99.9334H64.0813C64.3475 101.225 65.1158 102.603 65.9673 104.131C67.6605 107.167 69.6825 110.793 68.7394 115.506C67.4907 120.249 63.8998 124.992 57.0088 125"/>
</mask>
<path d="M56.9912 125C50.1002 124.992 46.5093 120.249 45.2606 115.506C44.3175 110.793 46.3395 107.167 48.0326 104.131C48.8842 102.603 49.6525 101.225 49.9187 99.9334H49.8834C49.9395 99.6804 49.9769 99.4307 49.9923 99.1839C49.9923 95.7344 47.1945 92.938 43.7433 92.938C43.242 92.938 42.8863 92.938 42.5319 92.9595C41.6665 93.0118 40.8088 93.192 37.8565 93.8124L37.856 93.8124C33.6943 94.6869 25.3709 96.4357 6.99892 99.9334C3.49951 81.5709 1.74978 73.2519 0.874906 69.0923L0.874845 69.092L0.874754 69.0916C0.254132 66.1408 0.073831 65.2836 0.0214506 64.4186C0 64.0644 0 63.7089 0 63.2079C0 59.7584 2.79779 56.962 6.24904 56.962C7.73358 57.0548 9.32144 57.9392 11.1149 58.9382C14.153 60.6305 17.7812 62.6514 22.4965 61.7089C27.2458 60.4597 31.9951 56.8656 31.9951 49.9667C31.9951 44.0119 27.8263 39.4765 22.2466 38.2245C17.4494 37.3527 14.6812 39.1004 12.1228 40.7157C10.2821 41.8778 8.55006 42.9714 6.24904 42.9714C2.79779 42.9714 0 40.175 0 36.7255C0 36.2245 0 35.869 0.0214506 35.5148C0.073831 34.6498 0.254132 33.7926 0.874754 30.8418L0.874845 30.8414L0.874876 30.8412L0.874937 30.841L0.875272 30.8394C1.75025 26.6793 3.49999 18.36 6.99892 0H107.001C110.5 18.36 112.25 26.6793 113.125 30.8394L113.125 30.841L113.125 30.8412L113.125 30.8414L113.125 30.8418C113.746 33.7926 113.926 34.6498 113.979 35.5148C114 35.869 114 36.2245 114 36.7255C114 40.175 111.202 42.9714 107.751 42.9714C105.45 42.9714 103.718 41.8778 101.877 40.7157C99.3188 39.1004 96.5506 37.3527 91.7534 38.2245C86.1737 39.4765 82.0049 44.0119 82.0049 49.9667C82.0049 56.8656 86.7542 60.4597 91.5035 61.7089C96.2188 62.6514 99.847 60.6305 102.885 58.9382C104.679 57.9392 106.266 57.0548 107.751 56.962C111.202 56.962 114 59.7584 114 63.2079C114 63.7089 114 64.0644 113.979 64.4186C113.926 65.2836 113.746 66.1408 113.125 69.0916L113.125 69.092L113.125 69.0923C112.25 73.2519 110.5 81.5709 107.001 99.9334C88.6291 96.4357 80.3057 94.6869 76.144 93.8124L76.1435 93.8124C73.1912 93.192 72.3335 93.0118 71.4681 92.9595C71.1137 92.938 70.758 92.938 70.2567 92.938C66.8055 92.938 64.0077 95.7344 64.0077 99.1839C64.0231 99.4307 64.0605 99.6804 64.1166 99.9334H64.0813C64.3475 101.225 65.1158 102.603 65.9673 104.131C67.6605 107.167 69.6825 110.793 68.7394 115.506C67.4907 120.249 63.8998 124.992 57.0088 125" stroke="black" stroke-width="2" mask="url(#path-1-inside-1_7_115)"/>
</svg>
