<svg width="114" height="151" viewBox="0 0 114 151" fill="none" xmlns="http://www.w3.org/2000/svg">
<mask id="path-1-inside-1_7_112" fill="white">
<path d="M45.2606 9.55802C46.5093 4.78306 50.1002 0.00808538 56.9912 0H57.0088C63.8998 0.00808538 67.4907 4.78306 68.7394 9.55802C69.6825 14.3029 67.6605 17.9538 65.9673 21.0109C65.1158 22.5484 64.3475 23.9357 64.0813 25.2365H64.1166C64.0605 25.4913 64.0231 25.7426 64.0077 25.9911C64.0077 29.464 66.8055 32.2793 70.2567 32.2793C70.758 32.2793 71.1137 32.2793 71.4681 32.2577C72.3335 32.205 73.1912 32.0236 76.1435 31.399L76.144 31.399C80.3057 30.5186 88.6291 28.7579 107.001 25.2365C110.5 43.7235 112.25 52.0989 113.125 56.2867L113.125 56.287L113.125 56.2874C113.746 59.2581 113.926 60.1212 113.979 60.9921C114 61.3487 114 61.7066 114 62.211C114 65.6839 111.202 68.4992 107.751 68.4992C106.266 68.4058 104.679 67.5153 102.885 66.5096C99.847 64.8058 96.2188 62.7712 91.5035 63.7202C86.7637 64.9753 82.024 68.5816 82.005 75.5C82.024 82.4184 86.7637 86.0247 91.5035 87.2798C96.2188 88.2288 99.847 86.1942 102.885 84.4904C104.679 83.4847 106.266 82.5942 107.751 82.5008C111.202 82.5008 114 85.3161 114 88.789C114 89.2934 114 89.6513 113.979 90.0079C113.926 90.8788 113.746 91.7419 113.125 94.7126L113.125 94.713L113.125 94.7133C112.25 98.9011 110.5 107.277 107.001 125.763C88.6291 122.242 80.3057 120.481 76.144 119.601L76.1435 119.601C73.1912 118.976 72.3335 118.795 71.4681 118.742C71.1137 118.721 70.758 118.721 70.2567 118.721C66.8055 118.721 64.0077 121.536 64.0077 125.009C64.0231 125.257 64.0605 125.509 64.1166 125.763H64.0813C64.3475 127.064 65.1158 128.452 65.9673 129.989C67.6605 133.046 69.6825 136.697 68.7394 141.442C67.4907 146.217 63.8998 150.992 57.0088 151H56.9912C50.1002 150.992 46.5093 146.217 45.2606 141.442C44.3175 136.697 46.3395 133.046 48.0326 129.989C48.8842 128.452 49.6525 127.064 49.9187 125.763H49.8834C49.9395 125.509 49.9769 125.257 49.9923 125.009C49.9923 121.536 47.1945 118.721 43.7433 118.721C43.242 118.721 42.8863 118.721 42.5319 118.742C41.6665 118.795 40.8088 118.976 37.8565 119.601L37.856 119.601C33.6943 120.481 25.3709 122.242 6.99892 125.763C3.49951 107.277 1.74978 98.9011 0.874906 94.7133L0.874845 94.713L0.874754 94.7126C0.254132 91.7419 0.073831 90.8788 0.0214506 90.0079C0 89.6513 0 89.2934 0 88.789C0 85.3161 2.79779 82.5008 6.24904 82.5008C7.73358 82.5942 9.32144 83.4847 11.1149 84.4904C14.153 86.1942 17.7812 88.2288 22.4965 87.2798C27.2362 86.0247 31.9759 82.4184 31.995 75.5C31.9759 68.5816 27.2362 64.9753 22.4965 63.7202C17.7812 62.7712 14.153 64.8058 11.1149 66.5096C9.32144 67.5153 7.73358 68.4058 6.24904 68.4992C2.79779 68.4992 0 65.6839 0 62.211C0 61.7066 0 61.3487 0.0214506 60.9921C0.073831 60.1212 0.254132 59.2581 0.874754 56.2874L0.874845 56.287L0.874906 56.2867C1.74978 52.0989 3.49951 43.7235 6.99892 25.2365C25.3709 28.7579 33.6943 30.5186 37.856 31.3989L37.8565 31.399C40.8088 32.0236 41.6665 32.205 42.5319 32.2577C42.8863 32.2793 43.242 32.2793 43.7433 32.2793C47.1945 32.2793 49.9923 29.464 49.9923 25.9911C49.9769 25.7426 49.9395 25.4913 49.8834 25.2365H49.9187C49.6525 23.9357 48.8842 22.5484 48.0326 21.0109C46.3395 17.9538 44.3175 14.3029 45.2606 9.55802Z"/>
</mask>
<path d="M56.9912 0L56.9912 -1L56.9901 -0.999999L56.9912 0ZM45.2606 9.55802L44.2931 9.30501L44.2856 9.33385L44.2798 9.36308L45.2606 9.55802ZM57.0088 0L57.0099 -1H57.0088V0ZM68.7394 9.55802L69.7202 9.36308L69.7144 9.33385L69.7069 9.30501L68.7394 9.55802ZM65.9673 21.0109L65.0926 20.5264L65.0926 20.5265L65.9673 21.0109ZM64.0813 25.2365L63.1016 25.036L62.8559 26.2365H64.0813V25.2365ZM64.1166 25.2365L65.0932 25.4518L65.3611 24.2365H64.1166V25.2365ZM64.0077 25.9911L63.0096 25.9291L63.0077 25.9601V25.9911H64.0077ZM71.4681 32.2577L71.4073 31.2596L71.4073 31.2596L71.4681 32.2577ZM76.1435 31.399L75.9599 30.416L75.9482 30.4182L75.9365 30.4207L76.1435 31.399ZM76.144 31.399L76.3275 32.382L76.3393 32.3798L76.3509 32.3773L76.144 31.399ZM107.001 25.2365L107.984 25.0505L107.797 24.0657L106.813 24.2544L107.001 25.2365ZM113.125 56.2867L114.108 56.1007L114.106 56.0914L114.104 56.0822L113.125 56.2867ZM113.125 56.287L112.143 56.473L112.145 56.4878L112.149 56.5026L113.125 56.287ZM113.125 56.2874L114.104 56.0829L114.102 56.0718L113.125 56.2874ZM113.979 60.9921L112.98 61.0521L112.98 61.0521L113.979 60.9921ZM107.751 68.4992L107.688 69.4972L107.72 69.4992H107.751V68.4992ZM102.885 66.5096L102.396 67.3818L102.396 67.3818L102.885 66.5096ZM91.5035 63.7202L91.3062 62.7398L91.2766 62.7458L91.2475 62.7535L91.5035 63.7202ZM82.005 75.5L81.005 75.4972L81.005 75.5028L82.005 75.5ZM91.5035 87.2798L91.2475 88.2465L91.2766 88.2542L91.3062 88.2602L91.5035 87.2798ZM102.885 84.4904L102.396 83.6182L102.396 83.6182L102.885 84.4904ZM107.751 82.5008V81.5008H107.72L107.688 81.5028L107.751 82.5008ZM113.979 90.0079L112.98 89.9479L112.98 89.9479L113.979 90.0079ZM113.125 94.7126L114.101 94.9308L114.104 94.9171L113.125 94.7126ZM113.125 94.713L112.149 94.4948L112.145 94.5122L112.142 94.5298L113.125 94.713ZM113.125 94.7133L114.104 94.9178L114.106 94.9072L114.108 94.8965L113.125 94.7133ZM107.001 125.763L106.813 126.746L107.797 126.934L107.984 125.949L107.001 125.763ZM76.144 119.601L76.3509 118.623L76.3393 118.62L76.3275 118.618L76.144 119.601ZM76.1435 119.601L75.9365 120.579L75.9482 120.582L75.9599 120.584L76.1435 119.601ZM71.4681 118.742L71.4073 119.74L71.4073 119.74L71.4681 118.742ZM64.0077 125.009H63.0077V125.04L63.0096 125.071L64.0077 125.009ZM64.1166 125.763V126.763H65.3611L65.0932 125.548L64.1166 125.763ZM64.0813 125.763V124.763H62.8559L63.1016 125.964L64.0813 125.763ZM65.9673 129.989L65.0926 130.474L65.0926 130.474L65.9673 129.989ZM68.7394 141.442L69.7069 141.695L69.7144 141.666L69.7202 141.637L68.7394 141.442ZM57.0088 151L57.0088 152L57.0099 152L57.0088 151ZM56.9912 151L56.9901 152H56.9912V151ZM45.2606 141.442L44.2798 141.637L44.2856 141.666L44.2931 141.695L45.2606 141.442ZM48.0326 129.989L48.9074 130.474L48.9074 130.474L48.0326 129.989ZM49.9187 125.763L50.8984 125.964L51.1441 124.763H49.9187V125.763ZM49.8834 125.763L48.9068 125.548L48.6389 126.763H49.8834V125.763ZM49.9923 125.009L50.9904 125.071L50.9923 125.04V125.009H49.9923ZM42.5319 118.742L42.5927 119.74L42.5927 119.74L42.5319 118.742ZM37.8565 119.601L38.0401 120.584L38.0518 120.582L38.0635 120.579L37.8565 119.601ZM37.856 119.601L37.6725 118.618L37.6607 118.62L37.649 118.623L37.856 119.601ZM6.99892 125.763L6.01637 125.949L6.20279 126.934L7.18717 126.746L6.99892 125.763ZM0.874906 94.7133L-0.108173 94.8965L-0.106183 94.9072L-0.103961 94.9178L0.874906 94.7133ZM0.874845 94.713L1.85792 94.5298L1.85465 94.5122L1.85075 94.4948L0.874845 94.713ZM0.874754 94.7126L-0.10421 94.9171L-0.101148 94.9308L0.874754 94.7126ZM0.0214506 90.0079L1.01965 89.9479L1.01965 89.9479L0.0214506 90.0079ZM6.24904 82.5008L6.31181 81.5028L6.28045 81.5008H6.24904V82.5008ZM11.1149 84.4904L11.604 83.6182L11.604 83.6182L11.1149 84.4904ZM22.4965 87.2798L22.6938 88.2602L22.7234 88.2542L22.7525 88.2465L22.4965 87.2798ZM31.995 75.5L32.995 75.5028L32.995 75.4972L31.995 75.5ZM22.4965 63.7202L22.7525 62.7535L22.7234 62.7458L22.6938 62.7398L22.4965 63.7202ZM11.1149 66.5096L11.604 67.3818L11.604 67.3818L11.1149 66.5096ZM6.24904 68.4992V69.4992H6.28045L6.31181 69.4972L6.24904 68.4992ZM0.0214506 60.9921L1.01965 61.0521L1.01965 61.0521L0.0214506 60.9921ZM0.874754 56.2874L-0.101782 56.0717L-0.104114 56.0829L0.874754 56.2874ZM0.874845 56.287L1.85132 56.5026L1.85458 56.4878L1.8574 56.473L0.874845 56.287ZM0.874906 56.2867L-0.103961 56.0822L-0.105891 56.0914L-0.107646 56.1007L0.874906 56.2867ZM6.99892 25.2365L7.18717 24.2544L6.20279 24.0657L6.01637 25.0505L6.99892 25.2365ZM37.856 31.3989L37.649 32.3773L37.656 32.3788L37.6631 32.3802L37.856 31.3989ZM37.8565 31.399L38.0635 30.4207L38.0564 30.4192L38.0494 30.4178L37.8565 31.399ZM42.5319 32.2577L42.5927 31.2596L42.5927 31.2596L42.5319 32.2577ZM49.9923 25.9911H50.9923V25.9601L50.9904 25.9291L49.9923 25.9911ZM49.8834 25.2365V24.2365H48.6389L48.9068 25.4518L49.8834 25.2365ZM49.9187 25.2365V26.2365H51.1441L50.8984 25.036L49.9187 25.2365ZM48.0326 21.0109L48.9074 20.5265L48.9074 20.5264L48.0326 21.0109ZM56.9901 -0.999999C49.4962 -0.991207 45.6144 4.25263 44.2931 9.30501L46.228 9.81103C47.4042 5.31349 50.7041 1.00738 56.9924 0.999999L56.9901 -0.999999ZM57.0088 -1H56.9912V1H57.0088V-1ZM69.7069 9.30501C68.3856 4.25263 64.5038 -0.991207 57.0099 -0.999999L57.0076 0.999999C63.2959 1.00738 66.5958 5.31349 67.772 9.81103L69.7069 9.30501ZM66.8421 21.4954C68.5235 18.4596 70.7427 14.5073 69.7202 9.36308L67.7586 9.75296C68.6223 14.0985 66.7975 17.4479 65.0926 20.5264L66.8421 21.4954ZM65.061 25.437C65.2899 24.3184 65.966 23.0775 66.8421 21.4954L65.0926 20.5265C64.2657 22.0193 63.4051 23.5531 63.1016 25.036L65.061 25.437ZM64.1166 24.2365H64.0813V26.2365H64.1166V24.2365ZM65.0058 26.0531C65.0176 25.8625 65.0467 25.6627 65.0932 25.4518L63.1401 25.0213C63.0743 25.3198 63.0286 25.6227 63.0096 25.9291L65.0058 26.0531ZM70.2567 31.2793C67.3636 31.2793 65.0077 28.9176 65.0077 25.9911H63.0077C63.0077 30.0104 66.2473 33.2793 70.2567 33.2793V31.2793ZM71.4073 31.2596C71.0892 31.2789 70.766 31.2793 70.2567 31.2793V33.2793C70.75 33.2793 71.1381 33.2797 71.5289 33.2559L71.4073 31.2596ZM75.9365 30.4207C72.9424 31.0541 72.1789 31.2126 71.4073 31.2596L71.5288 33.2559C72.4881 33.1974 73.44 32.9931 76.3505 32.3774L75.9365 30.4207ZM75.9604 30.4159L75.9599 30.416L76.3271 32.3821L76.3275 32.382L75.9604 30.4159ZM106.813 24.2544C88.4339 27.7771 80.1041 29.5391 75.937 30.4206L76.3509 32.3773C80.5072 31.4981 88.8244 29.7386 107.189 26.2187L106.813 24.2544ZM114.104 56.0822C113.23 51.8998 111.482 43.5305 107.984 25.0505L106.019 25.4225C109.519 43.9164 111.27 52.2981 112.146 56.4912L114.104 56.0822ZM114.108 56.101L114.108 56.1007L112.143 56.4726L112.143 56.473L114.108 56.101ZM114.102 56.0718L114.102 56.0713L112.149 56.5026L112.149 56.503L114.102 56.0718ZM114.977 60.932C114.919 59.9685 114.716 59.0123 114.104 56.0829L112.146 56.4919C112.776 59.504 112.934 60.2739 112.98 61.0521L114.977 60.932ZM115 62.211C115 61.7145 115 61.3245 114.977 60.932L112.98 61.0521C113 61.3728 113 61.6987 113 62.211H115ZM107.751 69.4992C111.76 69.4992 115 66.2302 115 62.211H113C113 65.1375 110.644 67.4992 107.751 67.4992V69.4992ZM102.396 67.3818C103.283 67.8791 104.17 68.3775 105.026 68.7597C105.884 69.1424 106.777 69.4399 107.688 69.4972L107.814 67.5011C107.241 67.4651 106.597 67.2707 105.841 66.9333C105.084 66.5955 104.281 66.1459 103.374 65.6374L102.396 67.3818ZM91.7008 64.7005C96.0118 63.8329 99.3352 65.6654 102.396 67.3818L103.374 65.6374C100.359 63.9463 96.4258 61.7095 91.3062 62.7398L91.7008 64.7005ZM83.005 75.5028C83.0224 69.1783 87.304 65.8667 91.7594 64.6868L91.2475 62.7535C86.2235 64.0838 81.0257 67.985 81.005 75.4972L83.005 75.5028ZM81.005 75.5028C81.0257 83.015 86.2235 86.9162 91.2475 88.2465L91.7594 86.3132C87.304 85.1333 83.0224 81.8217 83.005 75.4972L81.005 75.5028ZM91.3062 88.2602C96.4258 89.2905 100.359 87.0537 103.374 85.3626L102.396 83.6182C99.3352 85.3346 96.0118 87.1671 91.7008 86.2995L91.3062 88.2602ZM103.374 85.3626C104.281 84.8541 105.084 84.4045 105.841 84.0667C106.597 83.7293 107.241 83.5349 107.814 83.4989L107.688 81.5028C106.777 81.5601 105.884 81.8576 105.026 82.2403C104.17 82.6225 103.283 83.1209 102.396 83.6182L103.374 85.3626ZM107.751 83.5008C110.644 83.5008 113 85.8625 113 88.789H115C115 84.7697 111.76 81.5008 107.751 81.5008V83.5008ZM113 88.789C113 89.3013 113 89.6272 112.98 89.9479L114.977 90.068C115 89.6755 115 89.2855 115 88.789H113ZM112.98 89.9479C112.934 90.7261 112.776 91.496 112.146 94.5081L114.104 94.9171C114.716 91.9877 114.919 91.0315 114.977 90.068L112.98 89.9479ZM112.149 94.4944L112.149 94.4948L114.101 94.9312L114.101 94.9308L112.149 94.4944ZM112.142 94.5298L112.142 94.5302L114.108 94.8965L114.108 94.8962L112.142 94.5298ZM112.146 94.5088C111.27 98.7019 109.519 107.084 106.019 125.577L107.984 125.949C111.482 107.469 113.23 99.1002 114.104 94.9178L112.146 94.5088ZM107.189 124.781C88.8244 121.261 80.5073 119.502 76.3509 118.623L75.937 120.579C80.1042 121.461 88.4339 123.223 106.813 126.746L107.189 124.781ZM76.3275 118.618L76.3271 118.618L75.9599 120.584L75.9604 120.584L76.3275 118.618ZM76.3505 118.623C73.44 118.007 72.4881 117.803 71.5288 117.744L71.4073 119.74C72.1789 119.787 72.9424 119.946 75.9365 120.579L76.3505 118.623ZM71.5289 117.744C71.1381 117.72 70.75 117.721 70.2567 117.721V119.721C70.766 119.721 71.0892 119.721 71.4073 119.74L71.5289 117.744ZM70.2567 117.721C66.2473 117.721 63.0077 120.99 63.0077 125.009H65.0077C65.0077 122.082 67.3636 119.721 70.2567 119.721V117.721ZM63.0096 125.071C63.0286 125.377 63.0743 125.68 63.1401 125.979L65.0932 125.548C65.0467 125.337 65.0176 125.137 65.0058 124.947L63.0096 125.071ZM64.1166 124.763H64.0813V126.763H64.1166V124.763ZM63.1016 125.964C63.4051 127.447 64.2657 128.981 65.0926 130.474L66.8421 129.505C65.966 127.923 65.2899 126.682 65.061 125.563L63.1016 125.964ZM65.0926 130.474C66.7975 133.552 68.6223 136.902 67.7586 141.247L69.7202 141.637C70.7427 136.493 68.5235 132.54 66.8421 129.505L65.0926 130.474ZM67.772 141.189C66.5958 145.687 63.2959 149.993 57.0076 150L57.0099 152C64.5038 151.991 68.3856 146.747 69.7069 141.695L67.772 141.189ZM57.0088 150H56.9912V152H57.0088V150ZM56.9924 150C50.7041 149.993 47.4042 145.687 46.228 141.189L44.2931 141.695C45.6144 146.747 49.4962 151.991 56.9901 152L56.9924 150ZM46.2414 141.247C45.3777 136.902 47.2025 133.552 48.9074 130.474L47.1579 129.505C45.4765 132.54 43.2573 136.493 44.2798 141.637L46.2414 141.247ZM48.9074 130.474C49.7343 128.981 50.5949 127.447 50.8984 125.964L48.939 125.563C48.7101 126.682 48.034 127.923 47.1579 129.505L48.9074 130.474ZM49.9187 124.763H49.8834V126.763H49.9187V124.763ZM50.8599 125.979C50.9257 125.68 50.9714 125.377 50.9904 125.071L48.9942 124.947C48.9824 125.137 48.9533 125.337 48.9068 125.548L50.8599 125.979ZM50.9923 125.009C50.9923 120.99 47.7527 117.721 43.7433 117.721V119.721C46.6364 119.721 48.9923 122.082 48.9923 125.009H50.9923ZM43.7433 117.721C43.25 117.721 42.8618 117.72 42.4711 117.744L42.5927 119.74C42.9108 119.721 43.234 119.721 43.7433 119.721V117.721ZM42.4711 117.744C41.5119 117.803 40.56 118.007 37.6495 118.623L38.0635 120.579C41.0576 119.946 41.8211 119.787 42.5927 119.74L42.4711 117.744ZM37.6729 118.618L37.6725 118.618L38.0396 120.584L38.0401 120.584L37.6729 118.618ZM37.649 118.623C33.4927 119.502 25.1756 121.261 6.81068 124.781L7.18717 126.746C25.5661 123.223 33.8958 121.461 38.063 120.579L37.649 118.623ZM7.98148 125.577C4.48075 107.084 2.72977 98.7019 1.85377 94.5088L-0.103961 94.9178C0.769798 99.1002 2.51828 107.469 6.01637 125.949L7.98148 125.577ZM1.85799 94.5302L1.85792 94.5298L-0.108234 94.8962L-0.108173 94.8965L1.85799 94.5302ZM1.85075 94.4948L1.85066 94.4944L-0.101148 94.9308L-0.101056 94.9312L1.85075 94.4948ZM1.85362 94.5081C1.22436 91.496 1.06645 90.7261 1.01965 89.9479L-0.976745 90.068C-0.918792 91.0315 -0.716095 91.9877 -0.104114 94.9171L1.85362 94.5081ZM1.01965 89.9479C1.00035 89.6272 1 89.3013 1 88.789H-1C-1 89.2855 -1.00035 89.6755 -0.976745 90.068L1.01965 89.9479ZM1 88.789C1 85.8625 3.35595 83.5008 6.24904 83.5008V81.5008C2.23963 81.5008 -1 84.7697 -1 88.789H1ZM6.18627 83.4989C6.75917 83.5349 7.40261 83.7293 8.1586 84.0667C8.91552 84.4045 9.71904 84.8541 10.6258 85.3626L11.604 83.6182C10.7173 83.1209 9.83016 82.6225 8.97365 82.2403C8.11622 81.8576 7.22345 81.5601 6.31181 81.5028L6.18627 83.4989ZM10.6258 85.3626C13.6413 87.0537 17.5742 89.2905 22.6938 88.2602L22.2992 86.2995C17.9882 87.1671 14.6648 85.3346 11.604 83.6182L10.6258 85.3626ZM22.7525 88.2465C27.7764 86.9162 32.9743 83.015 32.995 75.5028L30.995 75.4972C30.9776 81.8217 26.696 85.1333 22.2406 86.3132L22.7525 88.2465ZM22.2406 64.6868C26.696 65.8667 30.9776 69.1783 30.995 75.5028L32.995 75.4972C32.9743 67.985 27.7764 64.0838 22.7525 62.7535L22.2406 64.6868ZM11.604 67.3818C14.6648 65.6654 17.9882 63.8329 22.2992 64.7005L22.6938 62.7398C17.5742 61.7095 13.6413 63.9463 10.6258 65.6374L11.604 67.3818ZM6.31181 69.4972C7.22345 69.4399 8.11622 69.1424 8.97365 68.7597C9.83016 68.3775 10.7173 67.8791 11.604 67.3818L10.6258 65.6374C9.71904 66.1459 8.91552 66.5955 8.1586 66.9333C7.40261 67.2707 6.75917 67.4651 6.18627 67.5011L6.31181 69.4972ZM-1 62.211C-1 66.2302 2.23963 69.4992 6.24904 69.4992V67.4992C3.35595 67.4992 1 65.1375 1 62.211H-1ZM-0.976745 60.932C-1.00035 61.3245 -1 61.7145 -1 62.211H1C1 61.6987 1.00035 61.3728 1.01965 61.0521L-0.976745 60.932ZM-0.104114 56.0829C-0.716095 59.0123 -0.918792 59.9685 -0.976745 60.932L1.01965 61.0521C1.06645 60.2739 1.22436 59.504 1.85362 56.4919L-0.104114 56.0829ZM-0.101627 56.0713L-0.101719 56.0718L1.85123 56.503L1.85132 56.5026L-0.101627 56.0713ZM-0.107646 56.1007L-0.107707 56.101L1.8574 56.473L1.85746 56.4726L-0.107646 56.1007ZM6.01637 25.0505C2.51828 43.5305 0.769798 51.8998 -0.103961 56.0822L1.85377 56.4912C2.72977 52.2981 4.48075 43.9164 7.98148 25.4225L6.01637 25.0505ZM38.0629 30.4206C33.8958 29.5391 25.5661 27.7771 7.18717 24.2544L6.81068 26.2187C25.1756 29.7386 33.4927 31.4981 37.649 32.3773L38.0629 30.4206ZM38.0494 30.4178L38.0488 30.4177L37.6631 32.3802L37.6636 32.3803L38.0494 30.4178ZM42.5927 31.2596C41.8211 31.2126 41.0576 31.0541 38.0635 30.4207L37.6495 32.3774C40.56 32.9931 41.5119 33.1974 42.4711 33.2559L42.5927 31.2596ZM43.7433 31.2793C43.234 31.2793 42.9108 31.2789 42.5927 31.2596L42.4711 33.2559C42.8618 33.2797 43.25 33.2793 43.7433 33.2793V31.2793ZM48.9923 25.9911C48.9923 28.9176 46.6364 31.2793 43.7433 31.2793V33.2793C47.7527 33.2793 50.9923 30.0104 50.9923 25.9911H48.9923ZM48.9068 25.4518C48.9533 25.6627 48.9824 25.8625 48.9942 26.0531L50.9904 25.9291C50.9714 25.6227 50.9257 25.3198 50.8599 25.0213L48.9068 25.4518ZM49.9187 24.2365H49.8834V26.2365H49.9187V24.2365ZM47.1579 21.4954C48.034 23.0775 48.7101 24.3184 48.939 25.437L50.8984 25.036C50.5949 23.5531 49.7343 22.0193 48.9074 20.5265L47.1579 21.4954ZM44.2798 9.36308C43.2573 14.5073 45.4765 18.4596 47.1579 21.4954L48.9074 20.5264C47.2025 17.4479 45.3777 14.0985 46.2414 9.75296L44.2798 9.36308Z" fill="black" mask="url(#path-1-inside-1_7_112)"/>
</svg>
