<svg width="150" height="107" viewBox="0 0 150 107" fill="none" xmlns="http://www.w3.org/2000/svg">
<mask id="path-1-inside-1_7_116" fill="white">
<path d="M118.809 30.8615L118.809 30.8605C119.684 26.6978 121.433 18.3731 124.931 0L25.0694 1.01725e-05C28.5671 18.3731 30.3161 26.6978 31.1907 30.8605L31.1909 30.8616L31.191 30.8618L31.191 30.862L31.1911 30.8624C31.8115 33.815 31.9917 34.6729 32.0441 35.5385C32.0655 35.8929 32.0655 36.2486 32.0655 36.75C32.0655 40.2018 29.2689 43 25.819 43C25.7911 43 25.7634 42.9998 25.7357 42.9995V42.9825C23.4356 42.9825 21.7042 41.8882 19.8643 40.7253C17.3069 39.109 14.5399 37.3601 9.74459 38.2325C4.16711 39.4853 0 44.0237 0 49.9825C0 56.886 4.74736 60.4825 9.49472 61.7325C14.2082 62.6757 17.8349 60.6534 20.8718 58.96C22.3991 58.1083 23.7772 57.3399 25.0694 57.0736V57.109C25.3224 57.0528 25.5721 57.0154 25.819 57C29.2689 57 32.0655 59.7982 32.0655 63.25C32.0655 63.7514 32.0655 64.1071 32.0441 64.4615C31.9917 65.3271 31.8115 66.1849 31.1911 69.1377L31.191 69.1382L31.191 69.1384C30.3164 73.3009 28.5673 81.6256 25.0694 100C43.4339 103.5 51.7539 105.25 55.9139 106.125L55.9142 106.125L55.9146 106.125C58.8657 106.746 59.7231 106.926 60.5882 106.979C60.9424 107 61.2979 107 61.799 107C65.2489 107 68.0455 104.202 68.0455 100.75C67.9528 99.2652 67.0682 97.6771 66.0691 95.8834C64.3766 92.8448 62.3555 89.2161 63.2982 84.5C64.5451 79.7592 68.1281 75.0183 75.0018 75.0001C81.8732 75.02 85.4551 79.76 86.7018 84.5C87.6445 89.2161 85.6234 92.8448 83.9309 95.8834C82.9318 97.6771 82.0472 99.2652 81.9545 100.75C81.9545 104.202 84.7511 107 88.201 107C88.7021 107 89.0576 107 89.4118 106.979C90.2769 106.926 91.1343 106.746 94.0854 106.125L94.0858 106.125L94.0861 106.125C98.2461 105.25 106.566 103.5 124.931 100C121.433 81.6254 119.684 73.3007 118.809 69.1383L118.809 69.1377C118.189 66.1849 118.008 65.3271 117.956 64.4615C117.934 64.1071 117.934 63.7514 117.934 63.25C117.934 59.7982 120.731 57 124.181 57C124.428 57.0154 124.678 57.0528 124.931 57.109V57.0736C126.223 57.3399 127.601 58.1083 129.128 58.96C132.165 60.6534 135.792 62.6757 140.505 61.7325C145.253 60.4825 150 56.886 150 49.9825C150 44.0237 145.833 39.4853 140.255 38.2325C135.46 37.3601 132.693 39.109 130.136 40.7253C128.296 41.8882 126.564 42.9825 124.264 42.9825V42.9995C124.237 42.9998 124.209 43 124.181 43C120.731 43 117.934 40.2018 117.934 36.75C117.934 36.2486 117.934 35.8929 117.956 35.5385C118.008 34.6729 118.189 33.8151 118.809 30.8624L118.809 30.862L118.809 30.8618L118.809 30.8615Z"/>
</mask>
<path d="M118.809 30.8605L119.788 31.0679L119.788 31.0661L118.809 30.8605ZM118.809 30.8615L119.775 31.1191L119.782 31.0942L119.787 31.0689L118.809 30.8615ZM124.931 0L125.913 0.187013L126.139 -1L124.931 -1L124.931 0ZM25.0694 1.01725e-05L25.0694 -0.99999L23.8611 -0.99999L24.0871 0.187023L25.0694 1.01725e-05ZM31.1907 30.8605L30.2121 31.0662L30.2125 31.0679L31.1907 30.8605ZM31.1909 30.8616L30.2127 31.0689L30.218 31.0942L30.2247 31.1191L31.1909 30.8616ZM31.191 30.8618L32.1802 30.7153L32.1719 30.6591L32.1573 30.6043L31.191 30.8618ZM31.191 30.862L30.2018 31.0085L30.2058 31.0351L30.2111 31.0615L31.191 30.862ZM31.1911 30.8624L30.2112 31.0619L30.2125 31.068L31.1911 30.8624ZM32.0441 35.5385L31.0459 35.5989L31.0459 35.5989L32.0441 35.5385ZM25.7357 42.9995H24.7357V43.988L25.7241 43.9995L25.7357 42.9995ZM25.7357 42.9825H26.7357V41.9825H25.7357V42.9825ZM19.8643 40.7253L20.3985 39.88L20.3985 39.88L19.8643 40.7253ZM9.74459 38.2325L9.5656 37.2486L9.54543 37.2523L9.52542 37.2568L9.74459 38.2325ZM9.49472 61.7325L9.2401 62.6995L9.2691 62.7071L9.2985 62.713L9.49472 61.7325ZM20.8718 58.96L20.3848 58.0866L20.3848 58.0866L20.8718 58.96ZM25.0694 57.0736H26.0694V55.8465L24.8676 56.0942L25.0694 57.0736ZM25.0694 57.109H24.0694V58.3553L25.2861 58.0852L25.0694 57.109ZM25.819 57V56H25.7878L25.7566 56.002L25.819 57ZM32.0441 64.4615L31.0459 64.4011L31.0459 64.4011L32.0441 64.4615ZM31.1911 69.1377L32.1681 69.3513L32.1698 69.3433L31.1911 69.1377ZM31.191 69.1382L32.1672 69.355L32.1679 69.3518L31.191 69.1382ZM31.191 69.1384L30.2147 68.9216L30.2123 68.9328L31.191 69.1384ZM25.0694 100L24.087 99.813L23.9001 100.795L24.8822 100.982L25.0694 100ZM55.9139 106.125L55.7081 107.104L55.7174 107.106L55.7267 107.107L55.9139 106.125ZM55.9142 106.125L56.1313 105.149L56.1164 105.146L56.1014 105.143L55.9142 106.125ZM55.9146 106.125L55.6976 107.101L55.7088 107.104L55.9146 106.125ZM60.5882 106.979L60.6486 105.98L60.6486 105.98L60.5882 106.979ZM68.0455 100.75H69.0455V100.719L69.0436 100.688L68.0455 100.75ZM66.0691 95.8834L66.9428 95.3968L66.9428 95.3968L66.0691 95.8834ZM63.2982 84.5L62.3311 84.2456L62.3234 84.2746L62.3176 84.304L63.2982 84.5ZM75.0018 75.0001L75.0047 74L74.9992 74.0001L75.0018 75.0001ZM86.7018 84.5L87.6824 84.304L87.6766 84.2746L87.6689 84.2456L86.7018 84.5ZM83.9309 95.8834L83.0572 95.3968L83.0572 95.3968L83.9309 95.8834ZM81.9545 100.75L80.9564 100.688L80.9545 100.719V100.75H81.9545ZM89.4118 106.979L89.3514 105.98L89.3514 105.98L89.4118 106.979ZM94.0854 106.125L94.2912 107.104L94.305 107.101L94.0854 106.125ZM94.0858 106.125L93.9014 105.142L93.8837 105.145L93.8661 105.149L94.0858 106.125ZM94.0861 106.125L94.2705 107.108L94.2812 107.106L94.2919 107.104L94.0861 106.125ZM124.931 100L125.118 100.982L126.1 100.795L125.913 99.813L124.931 100ZM118.809 69.1383L119.788 68.9327L119.786 68.9246L119.784 68.9165L118.809 69.1383ZM118.809 69.1377L117.83 69.3433L117.832 69.3514L117.834 69.3595L118.809 69.1377ZM117.956 64.4615L118.954 64.4011L118.954 64.4011L117.956 64.4615ZM124.181 57L124.243 56.0019L124.212 56H124.181V57ZM124.931 57.109L124.714 58.0852L125.931 58.3552V57.109H124.931ZM124.931 57.0736L125.132 56.0942L123.931 55.8465V57.0736H124.931ZM129.128 58.96L129.615 58.0866L129.615 58.0866L129.128 58.96ZM140.505 61.7325L140.701 62.713L140.731 62.7071L140.76 62.6995L140.505 61.7325ZM140.255 38.2325L140.475 37.2568L140.455 37.2523L140.434 37.2486L140.255 38.2325ZM130.136 40.7253L129.601 39.88L129.601 39.88L130.136 40.7253ZM124.264 42.9825V41.9825H123.264V42.9825H124.264ZM124.264 42.9995L124.276 43.9995L125.264 43.988V42.9995H124.264ZM117.956 35.5385L118.954 35.5989L118.954 35.5989L117.956 35.5385ZM118.809 30.8624L119.788 31.068L119.79 31.0561L118.809 30.8624ZM118.809 30.862L119.79 31.0557L119.795 31.0322L119.798 31.0084L118.809 30.862ZM118.809 30.8618L117.843 30.6042L117.828 30.6591L117.82 30.7153L118.809 30.8618ZM117.831 30.6531L117.831 30.6541L119.787 31.0689L119.788 31.0679L117.831 30.6531ZM123.948 -0.187013C120.452 18.1791 118.704 26.4976 117.831 30.6549L119.788 31.0661C120.664 26.8981 122.414 18.5671 125.913 0.187013L123.948 -0.187013ZM24.0871 0.187023C27.5861 18.5671 29.3364 26.8981 30.2121 31.0662L32.1694 30.6549C31.2959 26.4976 29.5481 18.1791 26.0518 -0.187002L24.0871 0.187023ZM30.2125 31.0679L30.2127 31.0689L32.1692 30.6542L32.169 30.6532L30.2125 31.0679ZM30.2247 31.1191L30.2247 31.1193L32.1573 30.6043L32.1572 30.604L30.2247 31.1191ZM30.2018 31.0083L30.2018 31.0085L32.1802 30.7155L32.1802 30.7153L30.2018 31.0083ZM30.2111 31.0615L30.2112 31.0619L32.171 30.6629L32.1709 30.6625L30.2111 31.0615ZM30.2125 31.068C30.8416 34.0622 30.9992 34.8265 31.0459 35.5989L33.0423 35.4781C32.9843 34.5194 32.7814 33.5678 32.1697 30.6568L30.2125 31.068ZM31.0459 35.5989C31.0652 35.9172 31.0655 36.2407 31.0655 36.75H33.0655C33.0655 36.2566 33.0659 35.8686 33.0423 35.4781L31.0459 35.5989ZM31.0655 36.75C31.0655 39.65 28.716 42 25.819 42V44C29.8217 44 33.0655 40.7535 33.0655 36.75H31.0655ZM25.819 42C25.7949 42 25.771 41.9999 25.7473 41.9996L25.7241 43.9995C25.7558 43.9998 25.7874 44 25.819 44V42ZM26.7357 42.9995V42.9825H24.7357V42.9995H26.7357ZM25.7357 41.9825C23.7667 41.9825 22.2706 41.0632 20.3985 39.88L19.33 41.5706C21.1378 42.7132 23.1045 43.9825 25.7357 43.9825V41.9825ZM20.3985 39.88C17.8061 38.2415 14.756 36.3044 9.5656 37.2486L9.92357 39.2163C14.3237 38.4159 16.8078 39.9765 19.33 41.5706L20.3985 39.88ZM9.52542 37.2568C3.54575 38.6 -1 43.5024 -1 49.9825H1C1 44.545 4.78846 40.3707 9.96375 39.2082L9.52542 37.2568ZM-1 49.9825C-1 57.4848 4.21093 61.3753 9.2401 62.6995L9.74935 60.7654C5.28379 59.5896 1 56.2872 1 49.9825H-1ZM9.2985 62.713C14.414 63.7367 18.3439 61.5145 21.3588 59.8334L20.3848 58.0866C17.3258 59.7923 14.0024 61.6147 9.69094 60.7519L9.2985 62.713ZM21.3588 59.8334C22.931 58.9567 24.1621 58.2816 25.2712 58.053L24.8676 56.0942C23.3923 56.3982 21.8672 57.26 20.3848 58.0866L21.3588 59.8334ZM24.0694 57.0736V57.109H26.0694V57.0736H24.0694ZM25.2861 58.0852C25.495 58.0388 25.6929 58.0098 25.8814 57.9981L25.7566 56.002C25.4514 56.021 25.1499 56.0668 24.8527 56.1327L25.2861 58.0852ZM25.819 58C28.716 58 31.0655 60.35 31.0655 63.25H33.0655C33.0655 59.2465 29.8217 56 25.819 56V58ZM31.0655 63.25C31.0655 63.7593 31.0652 64.0828 31.0459 64.4011L33.0423 64.5219C33.0659 64.1314 33.0655 63.7434 33.0655 63.25H31.0655ZM31.0459 64.4011C30.9992 65.1736 30.8416 65.9377 30.2125 68.9321L32.1698 69.3433C32.7814 66.4321 32.9843 65.4806 33.0423 64.5219L31.0459 64.4011ZM30.2142 68.9241L30.2141 68.9246L32.1679 69.3518L32.168 69.3513L30.2142 68.9241ZM30.2148 68.9214L30.2147 68.9216L32.1672 69.3553L32.1672 69.355L30.2148 68.9214ZM30.2123 68.9328C29.3366 73.1006 27.5863 81.4316 24.087 99.813L26.0518 100.187C29.5484 81.8196 31.2962 73.5011 32.1696 69.3441L30.2123 68.9328ZM24.8822 100.982C43.2397 104.481 51.5534 106.23 55.7081 107.104L56.1197 105.146C51.9543 104.27 43.6281 102.519 25.2566 99.0177L24.8822 100.982ZM55.7267 107.107L55.727 107.107L56.1014 105.143L56.1011 105.143L55.7267 107.107ZM55.6972 107.101L55.6976 107.101L56.1317 105.149L56.1313 105.149L55.6972 107.101ZM55.7088 107.104C58.6182 107.716 59.5693 107.919 60.5277 107.977L60.6486 105.98C59.8768 105.934 59.1132 105.776 56.1205 105.147L55.7088 107.104ZM60.5277 107.977C60.9181 108 61.3059 108 61.799 108V106C61.29 106 60.9667 106 60.6486 105.98L60.5277 107.977ZM61.799 108C65.8017 108 69.0455 104.754 69.0455 100.75H67.0455C67.0455 103.65 64.6961 106 61.799 106V108ZM69.0436 100.688C68.9867 99.777 68.6915 98.8848 68.3114 98.0273C67.9318 97.1709 67.4367 96.2837 66.9428 95.3968L65.1955 96.37C65.7006 97.2768 66.1474 98.0806 66.483 98.8378C66.8182 99.594 67.0116 100.238 67.0475 100.812L69.0436 100.688ZM66.9428 95.3968C65.2381 92.3363 63.4164 89.0105 64.2788 84.696L62.3176 84.304C61.2946 89.4216 63.5152 93.3533 65.1955 96.37L66.9428 95.3968ZM64.2653 84.7544C65.4385 80.2938 68.7291 76.0167 75.0045 76.0001L74.9992 74.0001C67.527 74.0199 63.6517 79.2245 62.3311 84.2456L64.2653 84.7544ZM87.6689 84.2456C86.3486 79.2254 82.4744 74.0217 75.0047 74.0001L74.9989 76.0001C81.272 76.0182 84.5617 80.2946 85.7347 84.7544L87.6689 84.2456ZM84.8045 96.37C86.4848 93.3533 88.7054 89.4216 87.6824 84.304L85.7212 84.696C86.5836 89.0105 84.7619 92.3363 83.0572 95.3968L84.8045 96.37ZM82.9525 100.812C82.9884 100.238 83.1818 99.594 83.517 98.8378C83.8526 98.0806 84.2994 97.2768 84.8045 96.37L83.0572 95.3968C82.5632 96.2837 82.0682 97.1709 81.6886 98.0273C81.3085 98.8848 81.0133 99.777 80.9564 100.688L82.9525 100.812ZM88.201 106C85.3039 106 82.9545 103.65 82.9545 100.75H80.9545C80.9545 104.754 84.1983 108 88.201 108V106ZM89.3514 105.98C89.0333 106 88.71 106 88.201 106V108C88.6941 108 89.0819 108 89.4723 107.977L89.3514 105.98ZM93.8795 105.147C90.8868 105.776 90.1232 105.934 89.3514 105.98L89.4723 107.977C90.4306 107.919 91.3818 107.716 94.2912 107.104L93.8795 105.147ZM93.8661 105.149L93.8657 105.15L94.305 107.101L94.3054 107.101L93.8661 105.149ZM93.9017 105.142L93.9014 105.142L94.2702 107.108L94.2705 107.108L93.9017 105.142ZM124.743 99.0177C106.372 102.519 98.0457 104.27 93.8803 105.146L94.2919 107.104C98.4466 106.23 106.76 104.481 125.118 100.982L124.743 99.0177ZM117.83 69.3439C118.704 73.5009 120.452 81.8194 123.948 100.187L125.913 99.813C122.414 81.4314 120.663 73.1004 119.788 68.9327L117.83 69.3439ZM117.834 69.3595L117.834 69.3601L119.784 68.9165L119.784 68.9158L117.834 69.3595ZM116.958 64.5219C117.016 65.4806 117.219 66.4321 117.83 69.3433L119.788 68.9321C119.158 65.9377 119.001 65.1736 118.954 64.4011L116.958 64.5219ZM116.934 63.25C116.934 63.7434 116.934 64.1314 116.958 64.5219L118.954 64.4011C118.935 64.0828 118.934 63.7593 118.934 63.25H116.934ZM124.181 56C120.178 56 116.934 59.2465 116.934 63.25H118.934C118.934 60.35 121.284 58 124.181 58V56ZM125.147 56.1327C124.85 56.0668 124.549 56.021 124.243 56.0019L124.119 57.998C124.307 58.0098 124.505 58.0388 124.714 58.0852L125.147 56.1327ZM123.931 57.0736V57.109H125.931V57.0736H123.931ZM129.615 58.0866C128.133 57.26 126.608 56.3982 125.132 56.0942L124.729 58.053C125.838 58.2816 127.069 58.9567 128.641 59.8334L129.615 58.0866ZM140.309 60.7519C135.998 61.6147 132.674 59.7923 129.615 58.0866L128.641 59.8334C131.656 61.5145 135.586 63.7367 140.701 62.713L140.309 60.7519ZM149 49.9825C149 56.2872 144.716 59.5896 140.251 60.7654L140.76 62.6995C145.789 61.3753 151 57.4848 151 49.9825H149ZM140.036 39.2081C145.212 40.3707 149 44.545 149 49.9825H151C151 43.5024 146.454 38.6 140.475 37.2568L140.036 39.2081ZM130.67 41.5706C133.192 39.9765 135.676 38.4158 140.076 39.2163L140.434 37.2486C135.244 36.3044 132.194 38.2414 129.601 39.88L130.67 41.5706ZM124.264 43.9825C126.896 43.9825 128.862 42.7132 130.67 41.5706L129.601 39.88C127.729 41.0632 126.233 41.9825 124.264 41.9825V43.9825ZM125.264 42.9995V42.9825H123.264V42.9995H125.264ZM124.181 44C124.213 44 124.244 43.9998 124.276 43.9995L124.253 41.9996C124.229 41.9999 124.205 42 124.181 42V44ZM116.934 36.75C116.934 40.7535 120.178 44 124.181 44V42C121.284 42 118.934 39.65 118.934 36.75H116.934ZM116.958 35.4781C116.934 35.8686 116.934 36.2566 116.934 36.75H118.934C118.934 36.2407 118.935 35.9172 118.954 35.5989L116.958 35.4781ZM117.83 30.6568C117.219 33.5679 117.016 34.5194 116.958 35.4781L118.954 35.5989C119.001 34.8265 119.158 34.0623 119.788 31.068L117.83 30.6568ZM117.828 30.6683L117.828 30.6687L119.79 31.0561L119.79 31.0557L117.828 30.6683ZM117.82 30.7153L117.82 30.7155L119.798 31.0084L119.798 31.0082L117.82 30.7153ZM117.843 30.604L117.843 30.6042L119.775 31.1193L119.775 31.1191L117.843 30.604ZM25.0694 1.00001L124.931 1L124.931 -1L25.0694 -0.99999L25.0694 1.00001Z" fill="black" mask="url(#path-1-inside-1_7_116)"/>
</svg>
