<svg width="107" height="125" viewBox="0 0 107 125" fill="none" xmlns="http://www.w3.org/2000/svg">
<path d="M105.636 68.9894C104.768 73.1144 103.041 81.3251 99.6025 99.3487C81.5745 95.9142 73.3643 94.1894 69.2417 93.3233L69.241 93.3231L69.1473 93.3035C66.2892 92.703 65.3941 92.515 64.4917 92.4604C64.1221 92.438 63.7531 92.438 63.2614 92.438H63.25C59.5224 92.438 56.5 95.4579 56.5 99.1839V99.1995L56.501 99.2151C56.5055 99.2879 56.5118 99.3606 56.5196 99.4334H56.46L56.5839 100.034C56.8658 101.402 57.6656 102.836 58.4946 104.323L58.5233 104.374C60.221 107.418 62.141 110.889 61.2451 115.394C60.0288 119.994 56.5797 124.5 49.9825 124.5C44.2878 124.5 39.9333 120.528 38.7225 115.157C37.8904 110.566 39.5439 107.943 41.1479 105.405L41.1766 105.36C42.2409 103.676 43.3214 101.967 43.4661 99.7672H43.4938L43.4995 99.2729C43.4996 99.2615 43.4997 99.25 43.4998 99.2385C43.4999 99.2203 43.5 99.2021 43.5 99.1839C43.5 95.4579 40.4776 92.438 36.75 92.438H36.7386C36.2469 92.438 35.8779 92.438 35.5083 92.4604C34.6059 92.515 33.7105 92.7031 30.8528 93.3035L30.7587 93.3232L30.7571 93.3236C26.6419 94.1881 18.4549 95.908 0.5 99.3292V0.5H99.5863C103.035 18.5816 104.766 26.8121 105.636 30.9437L105.636 30.9443C106.261 33.9162 106.43 34.7266 106.479 35.545C106.5 35.8812 106.5 36.2205 106.5 36.7255C106.5 39.8985 103.926 42.4714 100.75 42.4714C98.614 42.4714 96.9992 41.4651 95.1422 40.2929L95.1334 40.2873C92.5592 38.6623 89.6502 36.826 84.6606 37.7326L84.6505 37.7344L84.6405 37.7366C78.8592 39.0337 74.5 43.7508 74.5 49.9667C74.5 57.1655 79.4823 60.9063 84.3728 62.1924L84.3873 62.1962L84.402 62.1992C89.2988 63.1779 93.0681 61.0785 96.0895 59.3957L96.1267 59.375C97.0285 58.8728 97.8531 58.414 98.6351 58.0674C99.4106 57.7237 100.112 57.5056 100.766 57.4621C103.934 57.4706 106.5 60.0401 106.5 63.2079C106.5 63.7129 106.5 64.0522 106.479 64.3883C106.43 65.2067 106.261 66.0175 105.636 68.9894Z" stroke="black"/>
</svg>
